 <svg version="1.0" xmlns="http://www.w3.org/2000/svg" width="700.000000pt" height="700.000000pt" viewBox="0 0 700.000000 700.000000" preserveAspectRatio="xMidYMid meet">
<metadata>
Created by potrace 1.12, written by Peter Selinger 2001-2015
</metadata>
<g transform="translate(0.000000,700.000000) scale(0.100000,-0.100000)" fill="#000000" stroke="none">
<path d="M0 3500 l0 -3500 3500 0 3500 0 0 3500 0 3500 -3500 0 -3500 0 0
-3500z m2060 1660 c265 -20 446 -53 640 -117 422 -140 717 -392 903 -773 l47
-95 0 486 c0 435 2 488 16 493 9 3 321 6 694 6 671 0 927 -10 1070 -40 25 -5
74 -14 110 -20 146 -25 382 -120 515 -208 72 -49 214 -189 260 -257 112 -169
169 -349 187 -592 12 -156 1 -377 -22 -448 -5 -17 -19 -64 -31 -105 -89 -304
-325 -568 -634 -710 -274 -126 -531 -170 -992 -170 l-243 0 -2 -622 -3 -623
-460 0 -460 0 -5 514 -5 514 -24 -59 c-79 -197 -246 -420 -424 -568 -198 -165
-495 -297 -777 -348 -30 -5 -93 -17 -140 -25 -114 -21 -1461 -33 -1485 -13
-13 11 -15 251 -15 1891 0 1778 1 1879 18 1888 21 13 1095 14 1262 1z"></path>
<path d="M1710 3275 l0 -1158 155 6 c433 18 686 153 844 449 66 124 107 264
132 458 10 83 10 414 -1 505 -46 397 -183 640 -435 775 -138 73 -291 107 -532
117 l-163 6 0 -1158z"></path>
<path d="M4580 3886 l0 -536 265 0 c294 0 362 10 491 71 175 83 274 258 274
487 0 269 -114 418 -370 485 -63 16 -120 20 -367 24 l-293 5 0 -536z"></path>
</g>
</svg>